<svg width="758" height="254" viewBox="0 0 758 254" fill="none" xmlns="http://www.w3.org/2000/svg">
<path d="M445.317 61.8559L445.122 64.0056C439.52 64.3964 434.309 65.113 429.488 66.1552C424.668 67.0672 420.173 68.2397 416.004 69.6728C412.747 70.8454 409.034 72.4739 404.865 74.5584C400.826 76.5127 396.331 78.9229 391.381 81.7891C386.039 84.9158 379.916 91.9511 373.011 102.895C369.363 108.757 365.78 114.946 362.263 121.46C358.875 127.844 355.488 134.618 352.101 141.784C343.111 160.805 338.617 174.159 338.617 181.846C338.617 187.969 340.701 191.03 344.87 191.03C348.388 191.03 352.296 188.034 356.595 182.041C359.462 178.002 361.286 174.81 362.067 172.465C362.198 172.465 362.914 172.335 364.217 172.074C357.442 186.666 350.081 193.962 342.134 193.962C336.923 193.962 332.884 191.942 330.018 187.904C327.543 184.256 326.305 179.696 326.305 174.224C326.305 158.33 340.115 132.925 367.735 98.0092C361.351 102.96 355.423 108.106 349.951 113.448C344.479 118.789 339.333 124.391 334.513 130.254C331.256 134.162 327.347 139.309 322.787 145.692C318.227 151.946 312.951 159.437 306.958 168.166C301.747 175.722 297.447 181.78 294.06 186.34C290.673 190.77 288.263 193.832 286.829 195.525C286.178 194.483 285.852 193.636 285.852 192.985C287.155 190.119 288.914 185.298 291.129 178.523C291.91 176.048 292.301 172.074 292.301 166.603C292.301 145.758 293.083 130.905 294.646 122.046C295.949 114.229 299.467 104.458 305.199 92.7328C301.682 96.3806 297.969 101.462 294.06 107.976C290.152 114.36 285.983 122.242 281.553 131.622C279.599 136.051 277.123 141.523 274.127 148.037C271.131 154.421 267.548 161.978 263.379 170.706C259.991 177.351 253.477 183.083 243.836 187.904C234.326 192.724 224.49 195.134 214.328 195.134C200.518 195.134 188.076 190.9 177.002 182.432C165.276 173.312 159.414 161.978 159.414 148.428C159.414 134.879 163.778 123.088 172.507 113.057C181.236 102.764 192.245 97.6183 205.534 97.6183C215.565 97.6183 224.359 100.68 231.916 106.803C239.733 113.317 243.641 121.59 243.641 131.622C243.641 140.742 240.123 149.21 233.088 157.027C226.183 164.714 218.171 168.557 209.051 168.557C201.365 168.557 195.502 165.951 191.463 160.74C187.555 155.919 185.6 149.666 185.6 141.979C185.6 138.071 186.903 132.404 189.509 124.978L191.854 125.564C189.118 132.208 187.75 137.68 187.75 141.979C187.75 149.015 189.574 154.877 193.222 159.567C197 164.127 202.276 166.407 209.051 166.407C217.65 166.407 225.206 162.759 231.72 155.464C238.234 148.168 241.491 140.221 241.491 131.622C241.491 122.242 237.778 114.49 230.352 108.367C223.187 102.634 214.914 99.768 205.534 99.768C193.026 99.768 182.474 104.849 173.875 115.011C165.537 124.522 161.368 135.661 161.368 148.428C161.368 158.981 165.732 168.622 174.461 177.351C184.884 187.773 198.173 192.985 214.328 192.985C232.828 192.985 249.634 179.37 264.747 152.141C271.782 139.243 277.775 128.495 282.726 119.897C287.676 111.298 291.65 104.784 294.646 100.354C303.245 87.0655 311.648 77.9458 319.856 72.995C299.923 66.2204 287.741 62.833 283.312 62.833C265.594 62.833 253.412 67.6535 246.768 77.2943C243.38 82.2451 241.687 87.8472 241.687 94.1007C241.687 99.9634 243.315 105.11 246.572 109.539C250.22 114.36 254.91 116.77 260.643 116.77C264.551 116.77 267.873 115.402 270.609 112.666H271.782C267.743 118.659 263.183 121.655 258.102 121.655C251.328 121.655 245.791 119.18 241.491 114.229C237.453 109.8 235.433 104.067 235.433 97.0321C235.433 84.3947 240.449 75.0144 250.481 68.8912C258.819 63.8102 269.763 61.2697 283.312 61.2697C287.351 61.2697 300.118 64.7873 321.615 71.8225C324.351 70.2591 326.891 69.4774 329.236 69.4774C331.972 69.4774 333.34 70.4545 333.34 72.4088C333.34 74.6236 331.842 75.731 328.845 75.731C327.543 75.731 326.24 75.4053 324.937 74.7538C319.726 81.6588 316.273 92.2116 314.58 106.412C314.319 108.106 314.124 110.191 313.993 112.666C313.993 115.011 314.058 117.877 314.189 121.265C314.319 124.652 314.384 127.583 314.384 130.059C314.384 132.404 314.254 134.423 313.993 136.117C313.602 139.243 311.062 148.037 306.372 162.499C333.34 123.414 361.09 95.8595 389.622 79.8348C395.485 76.5778 400.435 73.9722 404.474 72.0179C408.513 69.9334 411.64 68.4352 413.854 67.5232C422.062 64.5267 432.55 62.6376 445.317 61.8559Z" fill="black"/>
<path d="M390.498 173.006C391.137 173.006 391.593 173.554 391.411 174.193C389.037 184.327 385.111 191.54 375.89 191.54C366.852 191.54 361.374 182.045 361.374 167.437C361.374 152.464 367.582 141.6 377.168 141.6C386.024 141.6 389.767 152.556 390.133 158.307C390.224 159.859 389.402 161.046 388.307 161.046H368.221C367.491 161.046 366.852 161.685 366.943 162.416C367.308 169.628 367.765 173.554 370.412 178.393C372.512 182.319 375.342 184.236 378.812 184.236C383.833 184.236 387.668 180.036 389.585 173.645C389.676 173.28 390.041 173.006 390.498 173.006ZM368.495 157.668H379.633C381.824 157.668 382.372 155.842 382.098 153.925C381.094 147.991 379.359 145.434 375.068 145.434C371.143 145.434 368.221 149.178 367.217 156.116C367.126 156.938 367.673 157.668 368.495 157.668ZM416.235 176.841C416.783 176.75 417.331 177.297 417.24 177.845C416.327 186.518 412.218 191.54 406.923 191.54C401.536 191.54 400.167 186.701 400.167 178.575V147.078C400.167 146.53 399.71 146.073 399.163 146.073H397.884C396.789 146.073 395.876 145.16 395.876 144.065C395.876 143.243 396.241 142.604 396.971 142.239C400.167 140.504 404.275 135.665 405.188 131.831C405.28 131.557 405.553 131.283 405.827 131.283C406.284 131.283 406.558 131.648 406.558 132.014V141.691C406.558 142.239 407.014 142.695 407.562 142.695H412.583C413.496 142.695 414.227 143.426 414.227 144.43C414.227 145.343 413.496 146.073 412.583 146.073H407.562C407.014 146.073 406.558 146.53 406.558 147.078V177.297C406.558 183.597 406.832 185.971 409.844 185.971C412.309 185.971 414.409 182.136 415.322 177.662C415.414 177.206 415.779 176.841 416.235 176.841ZM452.614 177.48C452.705 184.419 452.34 191.54 445.493 191.54C443.119 191.54 441.019 189.988 440.197 186.062C440.015 185.24 439.011 185.058 438.554 185.697C435.085 190.444 431.798 191.54 428.876 191.54C424.129 191.54 420.842 187.431 420.842 180.493C420.842 174.924 423.216 170.815 426.138 168.076C428.329 165.976 431.068 164.059 438.737 160.042C439.467 159.677 439.924 158.946 439.924 158.216V153.742C439.924 147.169 437.367 144.156 433.989 144.156C430.885 144.156 428.603 146.53 428.603 149.36C428.603 151.277 429.059 151.734 429.059 153.834C429.059 155.842 428.42 158.125 425.59 158.125C423.49 158.125 421.755 156.116 421.755 153.286C421.755 144.978 430.429 141.6 434.902 141.6C439.193 141.6 442.115 143.334 443.941 146.347C445.767 149.451 446.04 151.734 446.04 158.125V178.484C446.04 183.323 446.771 185.423 448.414 185.423C450.423 185.423 451.062 181.314 451.062 177.571C451.153 177.206 451.336 176.841 451.701 176.75C452.157 176.75 452.523 177.023 452.614 177.48ZM439.924 175.38V163.694C439.924 162.872 439.102 162.416 438.371 162.781C432.072 166.068 427.598 169.628 427.598 177.206C427.598 182.775 429.881 185.332 432.802 185.332C436.728 185.332 439.924 179.671 439.924 175.38ZM474.954 163.237L483.993 182.501C485.819 186.336 487.371 187.523 489.197 187.797C489.836 187.888 490.292 188.436 490.292 189.166C490.292 189.805 489.653 190.444 488.923 190.444H476.232C475.502 190.444 474.954 189.805 474.954 189.075C474.954 188.436 475.411 187.888 476.141 187.797C477.693 187.614 478.241 187.157 478.15 186.336C478.058 185.514 477.876 185.058 477.51 184.419L471.12 170.724C470.937 170.267 470.298 170.267 470.024 170.724L464.546 182.593C463.542 184.875 463.085 185.879 463.085 186.518C463.085 187.157 463.542 187.705 464.911 187.797C465.642 187.888 466.098 188.436 466.098 189.166C466.098 189.896 465.55 190.444 464.82 190.444H456.421C455.69 190.444 455.051 189.805 455.051 189.075C455.051 188.436 455.508 187.888 456.147 187.705C457.881 187.431 458.886 186.701 460.62 183.414L468.563 167.437C469.02 166.524 469.02 165.337 468.563 164.333L462.172 150.638C460.164 146.439 458.52 145.434 456.695 145.252C456.055 145.16 455.599 144.613 455.599 143.974C455.599 143.243 456.147 142.695 456.877 142.695H470.024C470.754 142.695 471.393 143.243 471.393 143.974C471.393 144.613 470.937 145.16 470.298 145.343C468.746 145.526 468.107 146.165 468.107 147.26C468.107 148.63 469.385 151.46 471.576 156.025C471.759 156.39 471.941 156.755 472.124 157.12C472.398 157.577 473.037 157.577 473.219 157.12C473.767 155.934 474.406 154.655 474.954 153.469C476.597 149.817 477.784 147.899 477.784 146.621C477.784 145.708 477.145 145.434 475.867 145.252C475.228 145.16 474.68 144.613 474.68 143.974C474.68 143.243 475.319 142.695 476.05 142.695H485.453C486.184 142.695 486.732 143.243 486.732 143.974C486.732 144.613 486.275 145.252 485.636 145.343C483.627 145.617 481.801 146.53 480.615 148.904L475.045 160.133C474.589 161.138 474.498 162.233 474.954 163.237ZM502.353 128.727C500.162 128.727 498.519 126.444 498.519 123.34C498.519 120.327 500.254 117.954 502.353 117.954C504.636 117.954 506.279 120.327 506.279 123.34C506.279 126.444 504.636 128.727 502.353 128.727ZM510.662 187.797C511.301 187.888 511.848 188.436 511.848 189.075C511.848 189.805 511.209 190.444 510.479 190.444H495.141C494.411 190.444 493.771 189.805 493.771 189.075C493.771 188.436 494.319 187.888 494.958 187.797C499.158 187.249 499.797 185.879 499.797 178.484V154.016C499.797 149.451 497.606 148.356 495.963 148.173C495.232 148.082 494.776 147.443 494.776 146.804C494.776 146.073 495.232 145.526 495.963 145.343C497.606 145.069 500.893 144.247 504.819 141.691C505.001 141.6 505.184 141.509 505.458 141.6C505.914 141.691 506.188 142.056 506.188 142.513V178.302C506.188 185.514 506.736 187.157 510.662 187.797ZM524.274 158.399L532.216 165.155C537.055 169.263 538.881 172.185 538.881 178.21C538.881 185.332 534.042 191.54 528.199 191.54C524.456 191.54 516.422 191.266 516.422 185.879L516.239 175.197C516.239 174.65 516.696 174.193 517.244 174.193C517.791 174.193 518.248 174.558 518.248 175.015C519.891 184.784 521.809 189.166 527.195 189.166C531.121 189.166 533.586 185.697 533.586 181.314C533.586 178.028 532.034 175.289 529.478 173.371L525.369 170.176C519.07 165.246 516.239 160.133 516.239 154.747C516.239 146.347 520.53 141.6 526.739 141.6C529.478 141.6 536.234 143.426 536.234 147.078L536.416 157.303C536.416 157.942 535.96 158.49 535.321 158.49C534.773 158.49 534.316 158.033 534.225 157.577C532.582 148.538 531.121 143.974 526.647 143.974C523.452 143.974 520.987 146.165 520.987 151.186C520.987 153.56 522.082 156.664 524.274 158.399Z" fill="black"/>
</svg>
