<svg width="87" height="41" viewBox="0 0 87 41" fill="none" xmlns="http://www.w3.org/2000/svg">
<path d="M72.1661 9.81173L72.1344 10.1601C71.2265 10.2234 70.382 10.3396 69.6008 10.5085C68.8197 10.6562 68.0913 10.8463 67.4157 11.0785C66.8878 11.2685 66.2861 11.5324 65.6105 11.8702C64.956 12.1869 64.2276 12.5775 63.4253 13.042C62.5597 13.5487 61.5674 14.6888 60.4484 16.4623C59.8572 17.4124 59.2766 18.4152 58.7066 19.4709C58.1577 20.5054 57.6087 21.6033 57.0598 22.7645C55.603 25.847 54.8746 28.011 54.8746 29.2567C54.8746 30.249 55.2124 30.7452 55.888 30.7452C56.4581 30.7452 57.0915 30.2596 57.7882 29.2884C58.2527 28.6339 58.5482 28.1166 58.6749 27.7366C58.696 27.7366 58.8122 27.7155 59.0233 27.6732C57.9254 30.0379 56.7325 31.2202 55.4446 31.2202C54.6001 31.2202 53.9456 30.8929 53.4811 30.2384C53.08 29.6473 52.8794 28.9083 52.8794 28.0216C52.8794 25.4458 55.1174 21.3288 59.5933 15.6706C58.5588 16.4728 57.5982 17.3068 56.7114 18.1724C55.8247 19.0381 54.9907 19.9459 54.2095 20.896C53.6817 21.5294 53.0483 22.3633 52.3094 23.3979C51.5704 24.4113 50.7154 25.6253 49.7442 27.0398C48.8997 28.2644 48.2029 29.2461 47.654 29.9851C47.1051 30.7029 46.7145 31.1991 46.4822 31.4735C46.3767 31.3046 46.3239 31.1674 46.3239 31.0618C46.535 30.5974 46.82 29.8162 47.179 28.7183C47.3056 28.3172 47.369 27.6732 47.369 26.7865C47.369 23.4084 47.4956 21.0016 47.749 19.5659C47.9601 18.2991 48.5302 16.7156 49.4591 14.8155C48.8891 15.4066 48.2874 16.23 47.654 17.2857C47.0206 18.3202 46.345 19.5976 45.6272 21.1177C45.3105 21.8355 44.9093 22.7223 44.4237 23.7779C43.9381 24.8124 43.3575 26.037 42.6819 27.4515C42.133 28.5283 41.0773 29.4573 39.515 30.2384C37.9737 31.0196 36.3797 31.4102 34.7329 31.4102C32.4949 31.4102 30.4787 30.724 28.6841 29.3517C26.7839 27.8738 25.8338 26.037 25.8338 23.8412C25.8338 21.6455 26.5411 19.7348 27.9557 18.1091C29.3702 16.4412 31.1543 15.6072 33.3078 15.6072C34.9335 15.6072 36.3586 16.1034 37.5831 17.0957C38.8499 18.1513 39.4833 19.492 39.4833 21.1177C39.4833 22.5956 38.9133 23.9679 37.7732 25.2347C36.6542 26.4804 35.3557 27.1032 33.8778 27.1032C32.6322 27.1032 31.6821 26.6809 31.0276 25.8364C30.3942 25.0552 30.0775 24.0418 30.0775 22.7962C30.0775 22.1628 30.2886 21.2444 30.7109 20.0409L31.0909 20.1359C30.6476 21.2127 30.4259 22.0994 30.4259 22.7962C30.4259 23.9362 30.7215 24.8863 31.3126 25.6464C31.9249 26.3853 32.78 26.7548 33.8778 26.7548C35.2713 26.7548 36.4958 26.1637 37.5515 24.9813C38.6071 23.799 39.1349 22.5111 39.1349 21.1177C39.1349 19.5976 38.5332 18.3413 37.3298 17.349C36.1686 16.4201 34.8279 15.9556 33.3078 15.9556C31.2809 15.9556 29.5708 16.779 28.1774 18.4258C26.8261 19.967 26.1505 21.7722 26.1505 23.8412C26.1505 25.5514 26.8578 27.1137 28.2724 28.5283C29.9614 30.2173 32.1149 31.0618 34.7329 31.0618C37.7309 31.0618 40.4545 28.8556 42.9036 24.443C44.0437 22.3528 45.0149 20.611 45.8172 19.2175C46.6195 17.8241 47.2634 16.7684 47.749 16.0506C49.1425 13.8971 50.5042 12.4192 51.8343 11.6169C48.6041 10.519 46.63 9.97007 45.9122 9.97007C43.0408 9.97007 41.0668 10.7513 39.99 12.3136C39.4411 13.1159 39.1666 14.0237 39.1666 15.0372C39.1666 15.9872 39.4305 16.8212 39.9583 17.539C40.5495 18.3202 41.3096 18.7108 42.2385 18.7108C42.8719 18.7108 43.4103 18.4891 43.8537 18.0458H44.0437C43.3892 19.0169 42.6502 19.5025 41.8268 19.5025C40.729 19.5025 39.8317 19.1014 39.1349 18.2991C38.4804 17.5813 38.1532 16.6523 38.1532 15.5122C38.1532 13.4643 38.966 11.9441 40.5917 10.9518C41.943 10.1284 43.7164 9.71672 45.9122 9.71672C46.5667 9.71672 48.6357 10.2868 52.1194 11.4269C52.5627 11.1735 52.9744 11.0468 53.3545 11.0468C53.7978 11.0468 54.0195 11.2052 54.0195 11.5219C54.0195 11.8808 53.7767 12.0603 53.2911 12.0603C53.08 12.0603 52.8689 12.0075 52.6577 11.9019C51.8132 13.0209 51.2537 14.731 50.9793 17.0323C50.937 17.3068 50.9054 17.6446 50.8843 18.0458C50.8843 18.4258 50.8948 18.8903 50.9159 19.4392C50.937 19.9881 50.9476 20.4632 50.9476 20.8643C50.9476 21.2444 50.9265 21.5716 50.8843 21.8461C50.8209 22.3528 50.4092 23.7779 49.6492 26.1214C54.0195 19.7876 58.5166 15.3222 63.1403 12.7253C64.0904 12.1975 64.8927 11.7752 65.5472 11.4585C66.2017 11.1207 66.7084 10.8779 67.0673 10.7301C68.3974 10.2445 70.097 9.93841 72.1661 9.81173Z" fill="black"/>
</svg>
